<?xml version="1.0" encoding="utf-8"?>
<!-- Generator: Adobe Illustrator 25.2.0, SVG Export Plug-In . SVG Version: 6.00 Build 0)  -->
<svg version="1.1" xmlns="http://www.w3.org/2000/svg" xmlns:xlink="http://www.w3.org/1999/xlink" x="0px" y="0px"
	 viewBox="0 0 850.4 850.4" style="enable-background:new 0 0 850.4 850.4;" xml:space="preserve">
<style type="text/css">
	.st0{fill:#C3202E;stroke:#000000;stroke-miterlimit:10;}
	.st1{fill:#F5C01A;}
	.st2{font-family:'Montserrat-Bold';}
	.st3{font-size:58.4124px;}
	.st4{letter-spacing:5;}
	.st5{fill:#FFFFFF;}
	.st6{font-size:109.5233px;}
	.st7{font-family:'Montserrat-Regular';}
	.st8{font-size:41.8879px;}
	.st9{letter-spacing:2;}
	.st10{fill:#F8C01B;}
	.st11{fill:#E8D4CA;}
	.st12{fill:#245383;}
	.st13{fill:#183B5F;}
	.st14{fill:#FBF1AF;}
	.st15{fill:#6387C5;}
	.st16{fill:#445D8E;}
</style>
<g id="Layer_1">
	<rect class="st0" width="850.4" height="850.4"/>
</g>
<g id="Layer_2">
	<text transform="matrix(1 0 0 1 67.0615 107.6538)" class="st1 st2 st3 st4">YOUR</text>
	<text transform="matrix(1 0 0 1 80.1348 336.8511)" class="st1 st2 st3 st4">AND THE LIBRARIES</text>
	<text transform="matrix(1 0 0 1 67.1201 236.3145)" class="st5 st2 st6">L.I.F.E.</text>
	<text transform="matrix(1 0 0 1 67.1196 514.6514)"><tspan x="0" y="0" class="st5 st7 st8 st9">LEISURE &amp; LEARNING</tspan><tspan x="0" y="94.2" class="st5 st7 st8 st9">INTERESTS &amp; INFORMATION</tspan><tspan x="0" y="188.5" class="st5 st7 st8 st9">FUN &amp; FACTS</tspan><tspan x="0" y="282.7" class="st5 st7 st8 st9">ENTERTAINMENT &amp; EDUCATION</tspan></text>
	<g id="lULlh9.tif">
		
			<image style="overflow:visible;" width="205" height="251" id="Layer_1_2_" xlink:href="EEA0370F4059FF35.png"  transform="matrix(0.9127 0 0 0.9127 -0.6973 123.8554)">
		</image>
	</g>
	<g>
		<path class="st10" d="M691.4,23.3c1.5,0,3,0,4.5,0c0.1,5.5,0.1,10.9,0.2,16.4c-0.1,6.4-0.1,12.8-0.2,19.2c0,4.1,0,8.2,0,12.3
			c0,7.7-0.1,15.4-0.1,23.1c-0.3,40.8-0.6,81.7-0.8,122.5c-0.2,0.5-0.5,1.1-0.5,1.6c-0.5,6.6-3.2,11.3-10.3,12.6
			c-6.2,1.2-12.3,3.1-18.8,1.5c-4.5-1.1-9.1-1.5-13.6-2.4c-1.7-0.3-3-1.3-3-3.6c0.1-28.4,0.1-56.7,0.2-85.1c14.4,0,28.7,0,43.4,0
			c0-8.7,0-16.9,0-25.6c-14.6,0-29,0-43.4,0c0-30.9-0.1-61.7-0.1-92.6c0.7,0,1.5,0,2.2,0c-1,5.8-0.3,7.4,4.6,9.6
			c0.9,0.4,1.8,0.8,2.8,0.9c5.6,0.5,11.3,1.6,16.9,1.2C682.8,34.5,689.5,31.9,691.4,23.3z"/>
		<path class="st11" d="M691.4,23.3c-1.9,8.6-8.6,11.2-16,11.8c-5.6,0.4-11.2-0.7-16.9-1.2c-1-0.1-1.9-0.5-2.8-0.9
			c-4.9-2.2-5.6-3.8-4.6-9.6C664.5,23.3,678,23.3,691.4,23.3z"/>
		<path class="st12" d="M742.8,225.2c-2.1,4.1-6.3,5.4-10.1,6.4c-4.9,1.3-10.2,2-15.3,1.6c-5.7-0.4-11.4-2.1-16.9-3.6
			c-4.1-1.1-5.5-4.4-5.4-8.5c0.1-1.4-0.1-2.7-0.2-4.1c0.3-40.8,0.6-81.7,0.8-122.5c0.1-7.7,0.1-15.4,0.1-23.1
			c13.7-0.1,27.3-0.1,41-0.2c5.2,0,5.2,0,5.2,5.3c0,48,0,96,0,144C742.2,222,742.6,223.6,742.8,225.2z M731.3,193.4
			c0-37.2,0-74.2,0-111.3c-8.2,0-16.1,0-24.1,0c0,37.2,0,74.2,0,111.3C715.3,193.4,723.2,193.4,731.3,193.4z"/>
		<path class="st13" d="M742.8,225.2c-0.2-1.6-0.6-3.2-0.6-4.7c0-48,0-96,0-144c0-5.3,0-5.4-5.2-5.3c-13.7,0-27.3,0.1-41,0.2
			c0-4.1,0-8.2,0-12.3c13.6,0.1,27.3,0.2,40.9,0.2c5.3,0,5.5,0,5.3-5.2c-0.1-4.3,0.5-8.4,3.2-11.9c0.2,1.8,0.4,3.6,0.6,5.3
			c-1.5,3.1-2.6,6.2-2,9.8c0.7,4.6,0.9,9.3,1.4,13.9c0.4,4.2,0.9,8.5,1.3,12.7c0,1,0.1,2,0.1,3c-0.3,1.4-0.8,2.7-0.8,4.1
			c0,37.2,0,74.4-0.1,111.6c0,4.7-1,9.4-1.6,14.1C743.8,219.4,743.3,222.3,742.8,225.2z"/>
		<path class="st14" d="M649,141.5c0-8.5,0-17.1,0-25.6c14.4,0,28.7,0,43.4,0c0,8.7,0,16.9,0,25.6
			C677.7,141.5,663.3,141.5,649,141.5z"/>
		<path class="st12" d="M745.3,42c-2.7,3.5-3.3,7.6-3.2,11.9c0.2,5.2,0,5.2-5.3,5.2c-13.6-0.1-27.3-0.1-40.9-0.2
			c0.1-6.4,0.1-12.8,0.2-19.2c0.4-0.8,0.7-1.8,1.4-2.5c0.6-0.6,1.7-1.3,2.4-1.1c0.8,0.2,1.3,1.3,1.9,2.1c-2.7,4.7-2.2,7.4,2.7,9.6
			c9.5,4.2,19.3,4.4,29,0.5c4.6-1.9,7.5-5.6,7.9-10.8c0.9-0.5,1.7-1.1,2.6-1.6C745.5,37.8,746.8,39.6,745.3,42z"/>
		<path class="st15" d="M746.7,86.8c0-1-0.1-2-0.1-3c0.6-0.2,1.2-0.5,1.7-0.6c11.1-1,22.2-2,33.4-3c3.3-0.3,6.7-0.5,10-0.8
			c1.5-0.1,2.6,0.2,2.7,2.1c0.7,9.4,1.5,18.8,2.2,28.1c0.3,3.8,0.7,7.6,1,11.5c0.6,6.9,1.2,13.8,1.9,20.7c-11.8,1-23.7,2.2-35.5,3.1
			c-4.1,0.3-8.3,0.3-12.4,0.4c-0.7-8.3-1.3-16.6-2.1-24.9c-0.9-9.4-1.9-18.7-2.8-28.1C746.5,90.5,746.7,88.7,746.7,86.8z"/>
		<path class="st16" d="M799.6,141.9c-0.6-6.9-1.2-13.8-1.9-20.7c-0.3-3.8-0.7-7.6-1-11.5c-0.8-9.4-1.5-18.8-2.2-28.1
			c-0.1-1.9-1.2-2.3-2.7-2.1c-3.3,0.2-6.7,0.5-10,0.8c-11.1,1-22.2,2-33.4,3c-0.6,0.1-1.2,0.4-1.7,0.6c-0.4-4.2-0.9-8.5-1.3-12.7
			c0.2,0,0.5,0.1,0.7,0.1c14.9-1.2,29.9-2.5,44.8-3.8c0.8-0.1,1.8-1.4,2-2.3c0.2-1.3-0.2-2.7-0.4-4c-0.4-4.1-0.5-8.1,2.6-11.3
			c1,11.9,2.1,23.8,3.1,35.7c1,11.1,2,22.3,3,33.4c1,11.3,2,22.5,3,33.8c0.7,8.4,1.5,16.9,2.2,25.3c0.7,8.4,1.1,17,2.4,25.3
			c0.9,6-1.4,11.6-1,17.5c-0.5-1-1.2-2-1.3-3.1c-0.5-3.3-0.8-6.6-1.1-9.8c-0.7-0.1-1-0.2-1.4-0.2c-10.6,0.9-21.3,1.7-31.9,2.8
			c-4.7,0.5-9.4,1.4-14.2,2.2c-0.2-2-0.4-4-0.7-6c6.3-0.5,12.6-1,18.9-1.6c8.9-0.8,17.8-1.5,26.6-2.4c0.8-0.1,1.8-1.4,2-2.3
			c0.1-0.5-1.1-1.5-2-1.9c-0.6-0.3-1.5-0.1-2.2,0c-12,1-23.9,2-35.9,3.1c-2.5,0.2-5,0.9-7.5,1.4c-0.2-1.9-0.4-3.9-0.6-5.8
			c15.1-1.3,30.1-2.6,45.2-3.9c2.4-0.2,2.5-1.4,2.3-3.2c-0.8-7.1-1.5-14.3-2.2-21.4C801.1,159.5,800.3,150.7,799.6,141.9z"/>
		<path class="st14" d="M799.6,141.9c0.7,8.8,1.5,17.6,2.2,26.5c-15.9,1.4-31.7,2.7-47.6,4.1c-0.9-9-1.7-18-2.6-27.1
			c4.1-0.1,8.3,0,12.4-0.4C775.9,144,787.8,142.9,799.6,141.9z"/>
		<path class="st15" d="M754.2,172.4c15.9-1.4,31.7-2.7,47.6-4.1c0.7,7.1,1.5,14.3,2.2,21.4c0.2,1.8,0,3-2.3,3.2
			c-15.1,1.2-30.1,2.6-45.2,3.9C755.7,188.7,755,180.6,754.2,172.4z"/>
		<path class="st15" d="M757.9,212.4c4.7-0.7,9.4-1.7,14.2-2.2c10.6-1.1,21.3-1.9,31.9-2.8c0.4,0,0.7,0.1,1.4,0.2
			c0.4,3.3,0.6,6.6,1.1,9.8c0.2,1.1,0.9,2.1,1.3,3.1c-0.5,4.1-3,6.6-6.6,8c-11.9,4.6-24,6.3-36.5,2.6c-5.5-1.6-5.9-2.5-6.1-8
			C758.5,219.5,758.1,216,757.9,212.4z"/>
		<path class="st15" d="M795.1,49.6c-3.1,3.3-3,7.3-2.6,11.3c0.1,1.4,0.6,2.8,0.4,4c-0.2,0.9-1.2,2.2-2,2.3
			c-14.9,1.4-29.9,2.6-44.8,3.8c-0.2,0-0.5,0-0.7-0.1c-0.4-4.6-0.7-9.3-1.4-13.9c-0.5-3.6,0.5-6.7,2-9.8c1.1,0.4,2.2,0.9,3.2,1.3
			c-1.7,7.2-0.3,9.6,7,11.3c7,1.7,14.1,1.3,21-0.6c7.4-2,12.5-6.4,13.4-14.5c1.9-2.3,3.3-1.6,4.1,0.9
			C795.1,46.9,795,48.3,795.1,49.6z"/>
		<path class="st11" d="M790.6,44.8c-0.9,8.2-6,12.5-13.4,14.5c-6.9,1.9-14,2.2-21,0.6c-7.4-1.7-8.7-4.1-7-11.3
			C762.9,47.4,776.7,46.1,790.6,44.8z"/>
		<path class="st11" d="M741.3,37.4c-0.4,5.2-3.3,8.9-7.9,10.8c-9.6,4-19.5,3.8-29-0.5c-4.8-2.2-5.3-4.9-2.7-9.6c12,0,24,0.1,36,0
			C739,38.2,740.1,37.7,741.3,37.4z"/>
		<path class="st15" d="M757.1,202.7c2.5-0.5,5-1.2,7.5-1.4c12-1.1,23.9-2.1,35.9-3.1c0.7-0.1,1.6-0.3,2.2,0c0.8,0.4,2.1,1.4,2,1.9
			c-0.2,0.9-1.2,2.3-2,2.3c-8.9,0.9-17.8,1.6-26.6,2.4c-6.3,0.5-12.6,1-18.9,1.6C757.2,205.2,757.1,204,757.1,202.7z"/>
		<path class="st14" d="M731.3,193.4c-8,0-15.9,0-24.1,0c0-37.1,0-74.1,0-111.3c8,0,15.9,0,24.1,0
			C731.3,119.2,731.3,156.2,731.3,193.4z"/>
	</g>
	<rect x="1240.9" y="191.1" style="fill:none;" width="0" height="4.6"/>
</g>
</svg>
