<svg id="Layer_1" data-name="Layer 1" xmlns="http://www.w3.org/2000/svg" viewBox="0 0 518.63 156.57"><defs><style>.cls-1{fill:#231f20;}.cls-2{fill:none;stroke-miterlimit:10;stroke-width:1.13px;}.cls-2,.cls-3,.cls-4{stroke:#010101;}.cls-3{fill:#fff;}.cls-3,.cls-4{stroke-miterlimit:10;stroke-width:1.13px;}.cls-4{fill:#010101;}</style></defs><path class="cls-1" d="M271.31,93.33v3q-4.17,3.9-7.07,6.28a70.71,70.71,0,0,1-5.8,4.29,32.29,32.29,0,0,1-4.8,2.72,8.59,8.59,0,0,1-3.26.81,6.65,6.65,0,0,1-5.29-2.41,9.21,9.21,0,0,1-2.06-6.22,22.56,22.56,0,0,1,1.77-8.67,44.37,44.37,0,0,1,5.06-8.86q3.28-4.58,8.23-10.27,3.68-4.2,3.67-4.72a.74.74,0,0,0-.21-.53.67.67,0,0,0-.49-.22q-.82,0-5.12,3.68a151.88,151.88,0,0,0-11,10.81q-6.72,7.14-14.51,17-.43.52-2.78,3.56a43.17,43.17,0,0,1-3.3,4,2.71,2.71,0,0,1-1.67.92c-.82,0-1.52-.83-2.12-2.48a15.27,15.27,0,0,1-.9-5.27,7.47,7.47,0,0,1,1.12-3.68q1.11-2,4.86-7.07t6.19-8.6q2.46-3.51,5.39-8.49,2.06-3.47,3-5.52a8.54,8.54,0,0,0,1-3.63c0-.91-.26-1.36-.78-1.36q-1.66,0-6.26,4.44A125.07,125.07,0,0,0,222.83,80q-6.77,8.76-14.12,20.27c-1.61,2.63-2.75,4.39-3.42,5.3a2.81,2.81,0,0,1-2.23,1.35c-1,0-2-1.08-2.87-3.26a14.76,14.76,0,0,1-1.33-5.27,2.68,2.68,0,0,1,.52-1.45q5.79-7.69,9.5-13.09t6.61-10.22a66.64,66.64,0,0,0,4.21-8A13.84,13.84,0,0,0,221,60.76c0-1.26-.57-1.88-1.71-1.88q-1.4,0-4.77,1.79T206,65.57q-5.15,3.12-8.26,4.75A11.4,11.4,0,0,1,193.12,72q-1.44,0-1.44-1.62a31.29,31.29,0,0,1,.61-4.23,20.26,20.26,0,0,1,1.27-4.66c.61-1.17,2.18-2.71,4.71-4.64s3.92-2.89,4.18-2.89.35.1.35.31-.12.29-.35.52a27.78,27.78,0,0,0-2.67,2.37,4,4,0,0,0-1.1,2A100.94,100.94,0,0,1,213,51.81c4.22-1.68,7.14-2.52,8.78-2.52a3,3,0,0,1,2.32,1.64A17.32,17.32,0,0,1,226,54.74a11.53,11.53,0,0,1,.76,2.78,15.54,15.54,0,0,1-1.13,5.27q-1.14,3-3.09,7.07t-4.84,10.07c1.52-2,3-3.76,4.34-5.43s2.73-3.28,4.09-4.85,2.73-3.17,4.14-4.78a57.63,57.63,0,0,1,6.39-6.28,55.29,55.29,0,0,1,6.63-4.9q3.09-1.9,4.18-1.9a3.41,3.41,0,0,1,2.74,1.68,6.11,6.11,0,0,1,1.2,3.61,15.17,15.17,0,0,1-1.66,4.86q-1.66,3.59-4.86,9.19t-8.45,14.45q5-5.3,10.37-10.9c3.59-3.74,6.26-6.46,8-8.19a54.89,54.89,0,0,1,4.38-3.94q2.42-1.83,4.84-4l3.83-3.35a18.44,18.44,0,0,1,2.49-1.88,4,4,0,0,1,2-.66c.76,0,1.71.88,2.87,2.63S277,58.21,277,58.7a3.79,3.79,0,0,1-1,2.19c-.69.85-2.11,2.42-4.27,4.73a104.52,104.52,0,0,0-10.33,12.89,71.45,71.45,0,0,0-6.64,11.86q-2.25,5.37-2.25,8.47a4.42,4.42,0,0,0,.72,2.81,2.78,2.78,0,0,0,2.26.87A6.42,6.42,0,0,0,258,102a18.76,18.76,0,0,0,2.67-1.49l2.78-1.84c1.23-.73,2.43-1.51,3.61-2.34s2.1-1.49,2.76-2S271,93.53,271.31,93.33Z" transform="translate(-5.84 -4.29)"/><path class="cls-1" d="M291.18,95.21l-7.79,6.61q-5.56,4.86-7.44,4.86c-1.14,0-2.34-1.3-3.59-3.92a16.16,16.16,0,0,1-1.88-6.85,10.41,10.41,0,0,1,.76-4.22,30.53,30.53,0,0,1,2.65-4.49A60.36,60.36,0,0,1,279,80.9a36.62,36.62,0,0,1,4.34-4A5.86,5.86,0,0,1,286,75.47a3.17,3.17,0,0,1,2.3,1.22,3.75,3.75,0,0,1,1.12,2.54,5.9,5.9,0,0,1-1.21,2.67,39,39,0,0,1-3.8,4.67,87,87,0,0,1-7.25,6.76l-.83,2.41A2.69,2.69,0,0,0,276,97a1,1,0,0,0,1.18,1.18q1.23,0,5.76-3.1a73,73,0,0,0,9.82-8.37c1.38-1.37,2.51-2.58,3.42-3.63s1.72-2,2.45-3A21.78,21.78,0,0,1,300.4,78a2.26,2.26,0,0,1,1.29-.75,1.65,1.65,0,0,1,1.71.92,6.4,6.4,0,0,1,.61,3.11,6.22,6.22,0,0,1-1.05,3c-.7,1.18-2,3.19-3.94,6s-3.85,5.79-5.76,8.84-3.86,6.49-5.84,10.31c.08-.09,1-1,2.69-2.63s3.51-3.4,5.41-5.21,3.45-3.26,4.68-4.35,2.76-2.37,4.6-3.83v2.93q-5.91,6.34-10.71,12t-7.4,9.1l-3,4c-.79,1-1.49,2-2.12,2.86A24.34,24.34,0,0,1,280,126.4c-.42.48-.76.72-1,.72-.61,0-1.16-.6-1.64-1.81a8.92,8.92,0,0,1-.72-3.22,4.92,4.92,0,0,1,.48-2.23Q280.19,112.76,291.18,95.21Z" transform="translate(-5.84 -4.29)"/><path class="cls-1" d="M356.73,104.6a56.18,56.18,0,0,1-18.56,3.32c-9.14,0-16.68-2.33-22.59-8-5.2-5-8.43-13.09-8.43-22.5.09-18,12.46-31.21,32.73-31.21,7,0,12.46,1.53,15.06,2.78l-1.89,6.37a31.34,31.34,0,0,0-13.35-2.6c-14.71,0-24.3,9.15-24.3,24.3,0,15.33,9.23,24.39,23.31,24.39,5.11,0,8.61-.72,10.4-1.62v-18H336.83V75.55h19.9Z" transform="translate(-5.84 -4.29)"/><path class="cls-1" d="M404.69,95.46c0,4.48.09,8.43.36,11.83h-7l-.45-7.08h-.18a16.31,16.31,0,0,1-14.34,8.07c-6.82,0-15-3.77-15-19V63.9H376v24c0,8.25,2.51,13.8,9.69,13.8a11.07,11.07,0,0,0,11.11-11.2V63.9h7.89Z" transform="translate(-5.84 -4.29)"/><path class="cls-1" d="M426.57,51.7a4.89,4.89,0,0,1-9.78,0,4.81,4.81,0,0,1,4.94-4.93A4.69,4.69,0,0,1,426.57,51.7Zm-8.79,55.59V63.9h7.89v43.39Z" transform="translate(-5.84 -4.29)"/><path class="cls-1" d="M476.24,43.63V96.09c0,3.85.09,8.24.36,11.2h-7.09l-.36-7.53H469c-2.42,4.84-7.71,8.52-14.79,8.52-10.49,0-18.56-8.88-18.56-22.06-.09-14.43,8.88-23.31,19.46-23.31,6.63,0,11.12,3.14,13.09,6.64h.18V43.63Zm-7.89,37.93a13.9,13.9,0,0,0-.36-3.32A11.61,11.61,0,0,0,456.6,69.1c-8.16,0-13,7.17-13,16.76,0,8.79,4.3,16,12.82,16A11.86,11.86,0,0,0,468,92.5a13.68,13.68,0,0,0,.36-3.41Z" transform="translate(-5.84 -4.29)"/><path class="cls-1" d="M493.72,87c.18,10.67,7,15.06,14.88,15.06a28.49,28.49,0,0,0,12-2.24L522,105.5a35.07,35.07,0,0,1-14.44,2.69c-13.35,0-21.33-8.79-21.33-21.88s7.71-23.4,20.35-23.4c14.17,0,17.93,12.46,17.93,20.44A29.68,29.68,0,0,1,524.2,87Zm23.13-5.65c.09-5-2.06-12.82-10.94-12.82-8,0-11.48,7.35-12.1,12.82Z" transform="translate(-5.84 -4.29)"/><text x="-5.84" y="-4.29"/><circle class="cls-2" cx="80.03" cy="78.56" r="63.48"/><polygon class="cls-3" points="56.65 13.46 90.22 56.73 58.16 67.85 56.65 13.46"/><polyline class="cls-3" points="69.39 98.82 15 100.33 58.3 66.77"/><polyline class="cls-3" points="91.8 56.69 146.19 55.18 102.91 88.72"/><polyline class="cls-3" points="101.76 87.07 103.27 141.46 69.71 98.16"/><g id="Layer_1-2" data-name="Layer 1"><polygon class="cls-3" points="114.68 4.29 102.42 69.84 80.21 78.17 114.68 4.29"/><polygon class="cls-4" points="113.82 3.88 71.49 55.4 79.38 77.77 113.82 3.88"/><polygon class="cls-3" points="4.29 42.72 69.84 54.98 78.2 77.19 4.29 42.72"/><polygon class="cls-4" points="3.9 43.57 56.04 86.19 77.79 78.02 3.9 43.57"/><polygon class="cls-3" points="44.12 152.28 56.36 86.73 78.56 78.4 44.12 152.28"/><polygon class="cls-4" points="44.95 152.67 87.28 101.14 79.42 78.78 44.95 152.67"/><polygon class="cls-3" points="153.53 113.86 87.98 101.59 79.65 79.41 153.53 113.86"/><polygon class="cls-4" points="153.94 113 102.42 70.67 80.03 78.56 153.94 113"/></g></svg>