<svg xmlns="http://www.w3.org/2000/svg" viewBox="0 0 518.63 156.57"><defs><style>.cls-1{fill:#231f20;}.cls-2{fill:none;stroke-miterlimit:10;stroke-width:1.13px;}.cls-2,.cls-3,.cls-4{stroke:#010101;}.cls-3{fill:#fff;}.cls-3,.cls-4{stroke-miterlimit:10;stroke-width:1.13px;}.cls-4{fill:#010101;}.cls-5{fill:#c42032;}</style></defs><g id="Layer_1" data-name="Layer 1"><path class="cls-1" d="M278.92,127.12" transform="translate(-5.84 -4.29)"/><path class="cls-1" d="M524.47,83.35A29.68,29.68,0,0,1,524.2,87" transform="translate(-5.84 -4.29)"/><circle class="cls-2" cx="80.03" cy="78.56" r="63.48"/><polygon class="cls-3" points="56.65 13.46 90.22 56.73 58.16 67.85 56.65 13.46"/><polyline class="cls-3" points="69.39 98.82 15 100.33 58.3 66.77"/><polyline class="cls-3" points="91.8 56.69 146.19 55.18 102.91 88.72"/><polyline class="cls-3" points="101.76 87.07 103.27 141.46 69.71 98.16"/><g id="Layer_1-2" data-name="Layer 1"><polygon class="cls-3" points="114.68 4.29 102.42 69.84 80.21 78.17 114.68 4.29"/><polygon class="cls-4" points="113.82 3.88 71.49 55.4 79.38 77.77 113.82 3.88"/><polygon class="cls-3" points="4.29 42.72 69.84 54.98 78.2 77.19 4.29 42.72"/><polygon class="cls-4" points="3.9 43.57 56.04 86.19 77.79 78.02 3.9 43.57"/><polygon class="cls-3" points="44.12 152.28 56.36 86.73 78.56 78.4 44.12 152.28"/><polygon class="cls-4" points="44.95 152.67 87.28 101.14 79.42 78.78 44.95 152.67"/><polygon class="cls-3" points="153.53 113.86 87.98 101.59 79.65 79.41 153.53 113.86"/><polygon class="cls-4" points="153.94 113 102.42 70.67 80.03 78.56 153.94 113"/></g></g><g id="Text_as_Path" data-name="Text as Path"><path class="cls-5" d="M246.87,116.93c.28,0,.3.4,0,1a3.83,3.83,0,0,1-1.87,1.76,5.59,5.59,0,0,1-3.64.43q-7.48-1.22-7.48-9.86,0-6.63,3.88-22.32t7-25.2a4.05,4.05,0,0,0,.25-2c-.12-.41-.41-.47-.86-.18a4.37,4.37,0,0,0-1.34,1.65s-.85,1.88-2.41,5.48-3.3,7.33-5.22,11.19-4,7.93-6.41,12.21a59.57,59.57,0,0,1-7.12,10.51q-3.6,4.09-6.2,4.1a7.55,7.55,0,0,1-5.4-2q-2.08-2-2.08-6,0-3.45,2.26-11.88t5.37-18.32q3.09-9.9,3.38-11c.58-2.16.6-3.33.07-3.5s-1.32.52-2.37,2.06q-3.82,5.46-13.11,24.15t-10,27.9c-.05.77-.65,1-1.8.58a4.52,4.52,0,0,1-2.81-2.88,4.14,4.14,0,0,1-.22-1.37q0-6.33,9.11-24.88t18.4-29.91Q203.52,48,201.79,48q-9.28,0-15.26,4.17a13.25,13.25,0,0,0-6,11.45,14.69,14.69,0,0,0,1.08,6,6,6,0,0,0,2.6,3.14c.76.33.79.74.07,1.22a4.5,4.5,0,0,1-3,.29,10.71,10.71,0,0,1-6.22-4,12.88,12.88,0,0,1-2.56-8.31,13.26,13.26,0,0,1,4.21-10,23.77,23.77,0,0,1,10.77-5.65,62.11,62.11,0,0,1,15.12-1.66c2.16,0,5.44.12,9.86.36a68.59,68.59,0,0,0,8.5.15,2.94,2.94,0,0,1,1.29-.36h.15a9.24,9.24,0,0,1,4.21,1.87c1.65,1.15,2.48,2.33,2.48,3.53q0,2.52-6.37,23.76T216.34,98c0,1,.43,1.58,1.29,1.58q1.51,0,4.36-4a90.23,90.23,0,0,0,6.23-10.37q3.38-6.41,6.3-12.38t5.83-12.17c1.94-4.13,3.16-6.67,3.64-7.63,1.24-2.4,2.83-3.6,4.75-3.6.86,0,2.15.64,3.85,1.91s2.56,2.48,2.56,3.63q0,3.62-3,14.66T246,92.81Q243,104.92,243,111C243,114.37,244.27,116.36,246.87,116.93Z" transform="translate(-5.84 -4.29)"/><path class="cls-5" d="M293.81,72.94q-.36,2.81-10.37,29.81c-.09.24-.23.6-.39,1.08s-.3.84-.4,1.08c1.82-.58,2.86-.91,3.1-1,2.68-1.05,4.1-2.33,4.24-3.81.05-.48.44-.41,1.16.21a2.56,2.56,0,0,1,1.15,2.23q-.23,2.75-4,4.47a35.08,35.08,0,0,1-7.28,2q-4,9.36-8.49,13.54t-11.88,4.18a13.05,13.05,0,0,1-7.92-2.38,7.34,7.34,0,0,1-3.24-6.19,5.8,5.8,0,0,1,2-4.39,16.1,16.1,0,0,1,5.84-3.17,72.44,72.44,0,0,1,7.27-2.09c2.3-.53,5.13-1.1,8.49-1.73l1.3-.21,1.26-3.17c.55-1.39.88-2.21,1-2.45q5.26-13.47,6.63-17.35-11.82,22-21.75,22a5.33,5.33,0,0,1-4.17-2.34,10,10,0,0,1-1.88-6.45c0-1.58.92-4.34,2.74-8.28s3.74-8.17,5.76-12.7a43.68,43.68,0,0,0,3.6-10.91c.1-.91.84-1,2.23-.36a7,7,0,0,1,3.67,4.17,6,6,0,0,1,.44,2.24q0,2.37-5.37,13.93t-5.15,13.5c.1.81.51,1.22,1.23,1.22q4.68,0,11.12-9.54A144,144,0,0,0,287.91,67.4c.14-1.06,1-1,2.52.07a8,8,0,0,1,3.24,4.18A3.17,3.17,0,0,1,293.81,72.94Zm-32.62,50.19c2.31,0,4.38-1.07,6.23-3.35a41.93,41.93,0,0,0,5.44-9.54c-1.78.24-3.27.47-4.47.68s-2.54.49-4,.83a29.36,29.36,0,0,0-3.67,1,16.83,16.83,0,0,0-2.7,1.3,5,5,0,0,0-1.84,1.76,3.64,3.64,0,0,0-.43,2.24,5.39,5.39,0,0,0,1.8,3.34A5.47,5.47,0,0,0,261.19,123.13Z" transform="translate(-5.84 -4.29)"/><path class="cls-1" d="M299.57,83.81a30.19,30.19,0,0,1,9.14-21.31,31,31,0,0,1,22.11-9.15c10.59,0,16.63,4.25,19.95,8.93l-6.63,5.62c-2.95-3.53-6.91-6.41-14-6.41a20.7,20.7,0,0,0-14.76,6.19,22.78,22.78,0,0,0-6.55,15.84c0,8.86,6.19,13.83,14.4,13.83a21.68,21.68,0,0,0,10.66-2.59L337,84.17H324.12l2.09-7.7h21.46l-6.84,24.12a34.22,34.22,0,0,1-18.15,4.9C310.88,105.49,299.57,98.21,299.57,83.81Z" transform="translate(-5.84 -4.29)"/><path class="cls-1" d="M354,94a29.34,29.34,0,0,1,1.15-6.7L360.7,66.6h8.71l-5.69,21.1a17.81,17.81,0,0,0-.5,3.82c0,3.81,2.45,6,6.55,6,4.9,0,8.93-3.89,10.44-9.5L386,66.6h8.72l-10.16,38h-8.71l1.3-4.89c-3,3-6.7,5.68-11.53,5.68C358.54,105.41,354,101,354,94Z" transform="translate(-5.84 -4.29)"/><path class="cls-1" d="M406.13,66.6h8.71l-10.22,38h-8.71Zm3.46-14.11H419l-2.31,8.28h-9.36Z" transform="translate(-5.84 -4.29)"/><path class="cls-1" d="M445.8,99.58c-3.38,3.46-7.2,5.83-12.17,5.83-8.42,0-14.83-6.19-14.83-16.27A24,24,0,0,1,425.71,72,20.35,20.35,0,0,1,440,65.81c6.7,0,10.51,3.31,12.82,7.56l5.69-21.31h8.71l-14,52.56h-8.71Zm.08-5.61a15.86,15.86,0,0,0,4.75-11.09A9.24,9.24,0,0,0,441,73.3a12.11,12.11,0,0,0-8.5,3.67,16.3,16.3,0,0,0-4.61,11.59c0,5.77,3.6,9.37,9.08,9.37A12.61,12.61,0,0,0,445.88,94Z" transform="translate(-5.84 -4.29)"/><path class="cls-1" d="M475.18,88.64c0,5.76,3.38,9.72,9.86,9.72,3.67,0,6.48-1.23,9.72-3.67l4.18,5.54a22.13,22.13,0,0,1-14.76,5.26c-10.59,0-17.28-6.41-17.28-16.64a23.83,23.83,0,0,1,7-16.56,21.63,21.63,0,0,1,15.41-6.48c9.79,0,15.19,6.48,15.19,14.76a21.29,21.29,0,0,1-1.65,8.07Zm.93-5.76h19.73a8.73,8.73,0,0,0,.36-2.67c0-4-2.3-7.27-7.56-7.27a12.31,12.31,0,0,0-8.78,3.74A16,16,0,0,0,476.11,82.88Z" transform="translate(-5.84 -4.29)"/></g></svg>